<svg width="80" height="80" viewBox="0 0 80 80" fill="none" xmlns="http://www.w3.org/2000/svg">
<path d="M80 40C80 17.9086 62.0914 0 40 0C17.9086 0 0 17.9086 0 40C0 62.0914 17.9086 80 40 80C62.0914 80 80 62.0914 80 40Z" fill="#4A9E3E" fill-opacity="0.2"/>
<path d="M73.9495 40.3361C73.9495 21.7719 58.9003 6.72266 40.3361 6.72266C21.7719 6.72266 6.72266 21.7719 6.72266 40.3361C6.72266 58.9003 21.7719 73.9495 40.3361 73.9495C58.9003 73.9495 73.9495 58.9003 73.9495 40.3361Z" fill="#4A9E3E"/>
<path d="M21.7967 58.8725C22.5694 55.6564 23.7902 52.4331 24.3352 49.2259C18.1342 38.9268 24.579 24.4309 36.4773 22.2007C60.8009 17.6902 68.1797 52.5138 44.0999 58.22C39.6145 59.2311 35.4823 58.159 31.3985 56.3968C28.1967 57.2071 25.0003 58.1304 21.7949 58.8725H21.7967ZM40.5127 55.4718C60.9622 54.7403 60.6628 25.1408 40.1828 24.8826C30.5541 24.8414 23.0068 34.6225 25.5363 43.8765C27.6768 50.9308 28.6234 46.2034 26.3054 54.3011C26.2444 54.5216 26.2462 54.5216 26.4632 54.466C28.2505 53.9999 30.0396 53.5356 31.8252 53.0606C34.5806 54.2599 37.2912 55.6188 40.5127 55.4718Z" fill="white"/>
<path d="M30.8058 35.4119C30.7108 33.4794 32.8298 30.1144 35.284 31.312C36.4905 32.3643 36.5712 34.3076 37.2954 35.7059C37.3994 35.9802 37.3797 36.2366 37.2417 36.4983C36.8652 37.4054 35.3037 38.0329 35.829 39.1444C37.2112 41.6506 39.1868 43.5329 41.7593 44.8022C43.1289 45.6663 43.9106 43.7606 44.7316 42.961C45.2784 42.2529 46.2106 43.0847 46.8202 43.3321C47.6143 43.9668 50.0847 44.4956 49.9484 45.6125C49.952 47.6472 48.2866 49.1137 46.3612 49.4919C43.319 49.8989 40.3502 48.142 37.8709 46.5519C34.6835 43.9703 30.9026 39.7467 30.8058 35.4137V35.4119Z" fill="white"/>
</svg>
